<?xml version="1.0" standalone="no"?>
<!DOCTYPE svg PUBLIC "-//W3C//DTD SVG 1.1//EN" "http://www.w3.org/Graphics/SVG/1.1/DTD/svg11.dtd" >
<svg xmlns="http://www.w3.org/2000/svg" xmlns:xlink="http://www.w3.org/1999/xlink" version="1.1" viewBox="-10 0 2516 2048">
   <path fill="#1d191a"
d="M205 1618v-1393q0 -51 34.5 -87t86.5 -36h1855q49 0 85 36t36 87v1393q0 51 -36 87t-85 36h-1855q-51 0 -86 -36t-35 -87zM301 1071h203v545h131v-545h190v-84h-524v84zM309 854q0 10 11.5 18.5t27.5 8.5h1819q16 0 27.5 -8.5t11.5 -18.5v-604q0 -10 -11.5 -17.5
t-27.5 -7.5h-1819q-16 0 -27.5 7.5t-11.5 17.5v604zM727 797h311v-207h443v209h303v-494h-307v209h-441v-209h-309v492zM827 1534q0 35 26 59.5t62 24.5h250q35 0 60.5 -24.5t25.5 -59.5v-367q0 -35 -25.5 -59.5t-60.5 -24.5h-250q-37 0 -62.5 25t-25.5 59v367zM938 1534
h209v-367h-209v367zM1300 1616h109v-451h209v451h104v-451q0 -35 -25.5 -59.5t-60.5 -24.5h-336v535zM1776 1532q0 35 25.5 59.5t60.5 24.5h336v-84h-318v-162h318v-203q0 -35 -26 -59.5t-63 -24.5h-247q-35 0 -60.5 25t-25.5 59v365zM1880 1286v-119h211v119h-211z" />
</svg>
