<?xml version="1.0" standalone="no"?>
<!DOCTYPE svg PUBLIC "-//W3C//DTD SVG 1.1//EN" "http://www.w3.org/Graphics/SVG/1.1/DTD/svg11.dtd" >
<svg xmlns="http://www.w3.org/2000/svg" xmlns:xlink="http://www.w3.org/1999/xlink" version="1.1" viewBox="-10 0 2516 2048">
   <path fill="#1d191a"
d="M205 1618v-1393q0 -51 34.5 -87t86.5 -36h1855q49 0 85 36t36 87v1393q0 51 -36 87t-85 36h-1855q-51 0 -86 -36t-35 -87zM301 1071h203v545h131v-545h190v-84h-524v84zM301 868q0 12 12.5 21.5t28.5 9.5h1815q16 0 28.5 -9t12.5 -22v-612q0 -12 -12.5 -21.5t-28.5 -9.5
h-1815q-16 0 -28.5 9.5t-12.5 21.5v612zM723 817v-82h739v-123h-577q-27 0 -55.5 -8t-52 -21.5t-39 -32t-15.5 -38.5v-104q0 -20 15.5 -39t39 -32t52 -20.5t55.5 -7.5h891v80h-760v123h631q53 0 91 29.5t38 70.5v107q0 41 -38 69.5t-91 28.5h-924zM827 1534q0 35 26 59.5
t62 24.5h250q35 0 60.5 -24.5t25.5 -59.5v-367q0 -35 -25.5 -59.5t-60.5 -24.5h-250q-37 0 -62.5 25t-25.5 59v367zM938 1534v-367h209v367h-209zM1303 1616h106v-451h209v451h104v-451q0 -35 -25.5 -59.5t-60.5 -24.5h-333v535zM1776 1532q0 35 25.5 59.5t62.5 24.5h334
v-84h-318v-162h318v-203q0 -35 -26 -59.5t-63 -24.5h-245q-37 0 -62.5 25t-25.5 59v365zM1880 1286v-119h213v119h-213z" />
</svg>
