<?xml version="1.0" standalone="no"?>
<!DOCTYPE svg PUBLIC "-//W3C//DTD SVG 1.1//EN" "http://www.w3.org/Graphics/SVG/1.1/DTD/svg11.dtd" >
<svg xmlns="http://www.w3.org/2000/svg" xmlns:xlink="http://www.w3.org/1999/xlink" version="1.1" viewBox="-10 0 2291 2048">
   <path fill="currentColor"
d="M205 1597q0 -16 10 -24t23 -8h26v-1172h-26q-12 0 -22.5 -10t-10.5 -23v-108q0 -16 10 -24.5t23 -8.5h319v-119h408v119h319q33 0 33 33v82h694q29 0 47.5 19.5t18.5 45.5v488q0 37 -15.5 62.5t-36.5 41.5l-118 99q-29 25 -46.5 57.5t-17.5 66.5v340q0 29 -19.5 47.5
t-45.5 18.5h-461v86q0 12 -9.5 22.5t-23.5 10.5h-1046q-12 0 -22.5 -10.5t-10.5 -22.5v-109zM438 1505h166l49 -209h273l49 209h168l-283 -1052h-141zM676 1190l110 -500h2l113 500h-225zM1376 1505h115v-119h-115v119zM1376 567h115v-114h-115v114zM1610 1505h114v-119
h-114v119zM1610 567h114v-114h-114v114zM1843 567h119v-114h-119v114z" />
</svg>
