<?xml version="1.0" standalone="no"?>
<!DOCTYPE svg PUBLIC "-//W3C//DTD SVG 1.1//EN" "http://www.w3.org/Graphics/SVG/1.1/DTD/svg11.dtd" >
<svg xmlns="http://www.w3.org/2000/svg" xmlns:xlink="http://www.w3.org/1999/xlink" version="1.1" viewBox="-10 0 2174 2048">
   <path fill="currentColor"
d="M205 1505q0 -14 9 -22t22 -8h24v-1098h-24q-12 0 -21.5 -9.5t-9.5 -21.5v-102q0 -14 9 -22.5t22 -8.5h299v-111h383v111h299q12 0 21 8t9 23v78h651q27 0 44.5 18t17.5 43v377h-713v848q0 12 -9 21t-21 9h-981q-12 0 -21.5 -9t-9.5 -21v-103zM424 1419h156l45 -194h256
l45 194h157l-264 -987h-133zM647 1124l103 -469h2l106 469h-211zM1303 541h108v-109h-108v109zM1356 1282q0 -12 1 -46t5 -87t11 -89t16 -54q16 -39 53 -70q37 -33 96 -49t133 -17q111 0 191 43q80 45 86 113l-148 35q-18 -109 -129 -109q-84 0 -117 56q-32 55 -32 178v8v39
q0 74 6 143q4 35 7 59.5t7 41.5q6 33 27 49q20 20 41 26q25 6 53 7q55 0 88 -23q31 -20 43 -66q6 -20 8 -55t2 -86h-141v-88h297v125q0 131 -68 201q-71 71 -236 71h-5q-156 0 -226 -73q-69 -75 -69 -277v-6zM1522 541h108v-109h-108v109zM1741 541h110v-109h-110v109z" />
</svg>
