<?xml version="1.0" standalone="no"?>
<!DOCTYPE svg PUBLIC "-//W3C//DTD SVG 1.1//EN" "http://www.w3.org/Graphics/SVG/1.1/DTD/svg11.dtd" >
<svg xmlns="http://www.w3.org/2000/svg" xmlns:xlink="http://www.w3.org/1999/xlink" version="1.1" viewBox="-10 0 2174 2048">
   <path fill="currentColor"
d="M205 1505q0 -14 9 -22t22 -8h24v-1098h-24q-12 0 -21.5 -9.5t-9.5 -21.5v-102q0 -14 9 -22.5t22 -8.5h299v-111h383v111h299q12 0 21 8t9 23v78h651q27 0 44.5 18t17.5 43v377h-713v848q0 12 -9 21t-21 9h-981q-12 0 -21.5 -9t-9.5 -21v-103zM424 1419h156l45 -194h256
l45 194h157l-264 -987h-133zM647 1124l103 -469h2l106 469h-211zM1303 541h108v-109h-108v109zM1356 1638h184v-360h16l213 360h191l-234 -368q103 -25 150 -68q45 -45 45 -135q0 -197 -309 -197h-256v768zM1522 541h108v-109h-108v109zM1540 1208v-258h10q106 0 150 31
q43 29 43 98q0 72 -47 101q-45 25 -156 28zM1741 541h110v-109h-110v109z" />
</svg>
