<?xml version="1.0" standalone="no"?>
<!DOCTYPE svg PUBLIC "-//W3C//DTD SVG 1.1//EN" "http://www.w3.org/Graphics/SVG/1.1/DTD/svg11.dtd" >
<svg xmlns="http://www.w3.org/2000/svg" xmlns:xlink="http://www.w3.org/1999/xlink" version="1.1" viewBox="-10 0 2291 2048">
   <path fill="currentColor"
d="M205 1597q0 -16 10 -24t23 -8h26v-1172h-26q-12 0 -22.5 -10t-10.5 -23v-108q0 -16 10 -24.5t23 -8.5h319v-119h408v119h319q33 0 33 33v82h694q29 0 47.5 19.5t18.5 45.5v488q0 23 -4 33h-756v786q0 12 -9.5 22.5t-23.5 10.5h-1046q-12 0 -22.5 -10.5t-10.5 -22.5v-109z
M438 1505h449q59 0 104 -24.5t80 -69.5q70 -96 70 -223q0 -121 -56 -195q-16 -23 -36.5 -31t-40.5 -18l16 -12t14 -10q8 -6 15 -11q45 -70 45 -190q0 -111 -51 -186q-59 -82 -164 -82h-445v1052zM573 1305v-256h295q35 0 61.5 11t37.5 27q12 16 16 36t4 44q0 33 -7 56.5
t-19 46.5q-10 16 -31 25.5t-47 9.5h-310zM573 852v-203h299l64 35q12 12 14 26.5t2 37.5q0 20 -4 38.5t-18 34.5l-76 31h-281zM1376 567h115v-114h-115v114zM1397 1380q0 -57 10 -107t33 -91q18 -43 48 -75t71 -54q31 -16 70.5 -24.5t92.5 -8.5q104 0 152 20q47 20 82 66
q33 43 49 111l-180 36q-12 -37 -37 -59q-27 -20 -68 -20q-61 0 -100 49q-37 49 -37 153q0 113 37 162q39 49 104 49q29 0 60 -10q31 -14 65 -37v-65h-125v-144h289v295q-80 66 -147 90q-63 23 -152 23q-106 0 -174 -43q-66 -39 -106 -125q-37 -82 -37 -191zM1610 567h114
v-114h-114v114zM1843 567h119v-114h-119v114z" />
</svg>
