<?xml version="1.0" standalone="no"?>
<!DOCTYPE svg PUBLIC "-//W3C//DTD SVG 1.1//EN" "http://www.w3.org/Graphics/SVG/1.1/DTD/svg11.dtd" >
<svg xmlns="http://www.w3.org/2000/svg" xmlns:xlink="http://www.w3.org/1999/xlink" version="1.1" viewBox="-10 0 2291 2048">
   <path fill="currentColor"
d="M205 1599q0 -16 10 -24t23 -8h26v-1172h-26q-12 0 -22.5 -10t-10.5 -23v-108q0 -16 10 -24.5t23 -8.5h319v-119h408v119h319q33 0 33 33v82h694q29 0 47.5 19.5t18.5 45.5v488q0 37 -15.5 62.5t-36.5 41.5l-118 99q-29 25 -46.5 57.5t-17.5 67.5v339q0 29 -19.5 47.5
t-45.5 18.5h-461v86q0 12 -9.5 22.5t-23.5 10.5h-1046q-12 0 -22.5 -10.5t-10.5 -22.5v-109zM438 940q0 287 105 434q96 133 258 133q158 0 237 -116q68 -94 95 -263l8 -45h-154l-6 27q-8 80 -47 137q-49 66 -133 66q-96 0 -152 -80q-61 -86 -61 -293q0 -127 57 -209
q59 -82 156 -82q88 0 135 66l49 110l14 9h136l-7 -43q-12 -109 -86 -218q-83 -118 -238 -118h-3q-160 0 -258 131q-104 152 -105 354zM1376 1507h115v-118h-115v118zM1376 569h115v-114h-115v114zM1610 1507h114v-118h-114v118zM1610 569h114v-114h-114v114zM1843 569h119
v-114h-119v114z" />
</svg>
