<?xml version="1.0" standalone="no"?>
<!DOCTYPE svg PUBLIC "-//W3C//DTD SVG 1.1//EN" "http://www.w3.org/Graphics/SVG/1.1/DTD/svg11.dtd" >
<svg xmlns="http://www.w3.org/2000/svg" xmlns:xlink="http://www.w3.org/1999/xlink" version="1.1" viewBox="-10 0 3594 2048">
   <path fill="currentColor"
d="M205 1741v-1385h342v-254h491v254h312v164h206v-164h330v-254h492v254h323v168l627 -4q23 0 37 14.5t14 32.5v527q0 18 -14 31.5t-37 13.5h-248q-23 0 -40 17.5t-17 41.5v358q0 20 -14.5 34t-34.5 14h-273v137h-1145v-133h-206v133h-1145zM500 1067q0 182 100 289
q100 106 256 106q123 0 207 -61q80 -61 115 -191l-152 -47q-18 86 -63 125t-109 39q-86 0 -137 -61q-55 -61 -55 -211q0 -135 55 -201q51 -61 139 -61q61 0 107 34q45 39 57 97l156 -37q-25 -94 -80 -144q-90 -86 -232 -86q-162 0 -264 109q-100 111 -100 301zM1905 1460
h311q176 0 223 -6q72 -6 125 -37q49 -27 80 -80q29 -51 29 -102q0 -70 -45 -117q-43 -49 -129 -71q57 -20 94 -68q35 -47 35 -100q0 -51 -27 -93q-31 -41 -72 -63q-41 -25 -96 -33q-27 -4 -68 -6t-94 -2h-366v778zM2089 1327v-207h149q125 1 166 13q35 8 58 34q20 27 20 60
q0 41 -26 65q-25 25 -68 31q-14 4 -45 4h-82h-172zM2089 991v-180h106q66 0 106 1t54 3q43 2 70 27q22 22 22 56q0 42 -26 63q-25 22 -76 28q-12 2 -46 2h-87h-123zM2804 1524h159v-84h-159v84zM2804 672h159v-82h-159v82zM3041 672h160v-82h-160v82z" />
</svg>
