<?xml version="1.0" standalone="no"?>
<!DOCTYPE svg PUBLIC "-//W3C//DTD SVG 1.1//EN" "http://www.w3.org/Graphics/SVG/1.1/DTD/svg11.dtd" >
<svg xmlns="http://www.w3.org/2000/svg" xmlns:xlink="http://www.w3.org/1999/xlink" version="1.1" viewBox="-10 0 2291 2048">
   <path fill="currentColor"
d="M205 1597q0 -16 10 -24t23 -8h26v-1172h-26q-12 0 -22.5 -10t-10.5 -23v-108q0 -16 10 -24.5t23 -8.5h319v-119h408v119h319q33 0 33 33v82h694q29 0 47.5 19.5t18.5 45.5v488q0 23 -4 33h-756v786q0 12 -9.5 22.5t-23.5 10.5h-1046q-12 0 -22.5 -10.5t-10.5 -22.5v-109z
M436 1010q0 305 150 399q150 96 354 96q102 0 207 -30v-121q-98 24 -161 24h-5q-111 0 -188 -47q-72 -49 -95 -129q-10 -41 -15 -96t-5 -127q0 -240 94 -324q94 -80 229 -80q66 0 146 19v-127q-61 -8 -109.5 -12t-87.5 -4q-215 0 -364 114q-150 113 -150 445zM1376 567h115
v-114h-115v114zM1434 1409q-1 -219 122 -297q127 -76 299 -76q35 0 75 3t89 8v83q-66 -12 -121 -12q-111 0 -186 56q-80 53 -80 215q0 96 19 147q14 55 78 86q59 33 155 33q29 0 61.5 -4t73.5 -13v82q-86 18 -170 19q-172 0 -293 -64q-123 -61 -122 -266zM1610 567h114v-114
h-114v114zM1843 567h119v-114h-119v114z" />
</svg>
