<?xml version="1.0" standalone="no"?>
<!DOCTYPE svg PUBLIC "-//W3C//DTD SVG 1.1//EN" "http://www.w3.org/Graphics/SVG/1.1/DTD/svg11.dtd" >
<svg xmlns="http://www.w3.org/2000/svg" xmlns:xlink="http://www.w3.org/1999/xlink" version="1.1" viewBox="-10 0 2291 2048">
   <path fill="currentColor"
d="M205 1739v-1639h1872v1639h-1872zM367 1513v132h120v-132h-120zM367 1380h120v-131h-120v131zM367 1118h120v-133h-120v133zM367 854h120v-131h-120v131zM367 590h120v-131h-120v131zM367 328h120v-133h-120v133zM858 1448h572v-117h-363v-364h324v-121h-324v-334h350
v-121h-559v1057zM1794 1513v132h121v-132h-121zM1794 1380h121v-131h-121v131zM1794 1118h121v-133h-121v133zM1794 854h121v-131h-121v131zM1794 590h121v-131h-121v131zM1794 328h121v-133h-121v133z" />
</svg>
