<?xml version="1.0" standalone="no"?>
<!DOCTYPE svg PUBLIC "-//W3C//DTD SVG 1.1//EN" "http://www.w3.org/Graphics/SVG/1.1/DTD/svg11.dtd" >
<svg xmlns="http://www.w3.org/2000/svg" xmlns:xlink="http://www.w3.org/1999/xlink" version="1.1" viewBox="-10 0 2561 2048">
   <path fill="currentColor"
d="M205 1739v-1637h1814v621h-436v1016h-1378zM367 1511v134h120v-134h-120zM367 1380h120v-131h-120v131zM367 1118h120v-131h-120v131zM367 856h120v-133h-120v133zM367 592h120v-131h-120v131zM367 330h120v-133h-120v133zM788 1448h652v-117h-410v-364h369v-119h-369
v-336h400v-119h-642v1055zM1737 592h121v-131h-121v131zM1737 330h121v-133h-121v133zM1739 1741v-885h227q184 0 275 55q88 55 88 174q0 170 -209 213q227 31 227 222q0 104 -82 163q-82 57 -235 58h-291zM1931 1651q115 0 164 -31q51 -29 51 -115q0 -92 -51 -127t-164 -35
v308zM1931 1253q109 0 162 -34q49 -33 49 -117q0 -88 -43 -123q-41 -33 -168 -33v307z" />
</svg>
