<?xml version="1.0" standalone="no"?>
<!DOCTYPE svg PUBLIC "-//W3C//DTD SVG 1.1//EN" "http://www.w3.org/Graphics/SVG/1.1/DTD/svg11.dtd" >
<svg xmlns="http://www.w3.org/2000/svg" xmlns:xlink="http://www.w3.org/1999/xlink" version="1.1" viewBox="-10 0 2291 2048">
   <path fill="currentColor"
d="M205 1597q0 -12 9 -22t24 -10h24v-1170h-24q-33 0 -33 -33v-110q0 -33 33 -33h317v-117h410v117h319q12 0 22.5 9.5t10.5 23.5v84h694q29 0 47.5 19.5t18.5 45.5v404h-760v903q0 14 -10.5 23.5t-22.5 9.5h-1046q-33 0 -33 -33v-111zM438 1507h176v-723h4l369 723h154
v-1054h-172v725l-4 -2l-371 -723h-156v1054zM1374 571h117v-118h-117v118zM1556 1010q125 -88 299 -88q66 0 162 12v98q-31 -8 -60.5 -11t-58.5 -3q-111 0 -188 63q-78 61 -78 250q0 113 19 174q14 63 78 101q59 36 150 36h5q53 0 133 -18v94q-86 23 -168 23
q-170 0 -293 -74q-122 -73 -122 -307q0 -260 122 -350zM1608 571h118v-118h-118v118zM1843 571h117v-118h-117v118z" />
</svg>
