<?xml version="1.0" standalone="no"?>
<!DOCTYPE svg PUBLIC "-//W3C//DTD SVG 1.1//EN" "http://www.w3.org/Graphics/SVG/1.1/DTD/svg11.dtd" >
<svg xmlns="http://www.w3.org/2000/svg" xmlns:xlink="http://www.w3.org/1999/xlink" version="1.1" viewBox="-10 0 2291 2048">
   <path fill="currentColor"
d="M205 1597q0 -16 10 -24t23 -8h26v-1172h-26q-12 0 -22.5 -10t-10.5 -23v-108q0 -16 10 -24.5t23 -8.5h319v-119h408v119h319q33 0 33 33v82h694q29 0 47.5 19.5t18.5 45.5v488q0 37 -15.5 62.5t-36.5 41.5l-118 99q-29 25 -46.5 57.5t-17.5 66.5v340q0 29 -19.5 47.5
t-45.5 18.5h-461v86q0 12 -9.5 22.5t-23.5 10.5h-1046q-12 0 -22.5 -10.5t-10.5 -22.5v-109zM342 1126q6 115 43 172q31 61 98 62q23 0 41.5 -7t34.5 -18q29 -29 47 -78q6 -25 11.5 -51t5.5 -55q0 -66 -17 -109q-14 -47 -37 -67q-12 -14 -31.5 -25.5t-41.5 -23.5
q-29 -12 -43.5 -23.5t-22.5 -21.5q-10 -14 -10 -41t10 -43q23 -23 49 -23q27 0 45 23q8 23 19 73l67 -4q-2 -94 -32 -151q-33 -51 -99 -51q-18 0 -35.5 5t-29.5 15q-31 25 -45 70q-6 23 -11.5 46t-5.5 48q0 78 33 137q25 41 78 68q43 16 57 28q14 8 25 29q6 16 6 41
q0 37 -19 63q-12 27 -49 27q-31 0 -51 -31q-10 -16 -14 -39.5t-10 -56.5zM680 1346h262v-113h-190v-186h168v-113h-168v-150h182v-112h-254v674zM999 1346h70v-256h47q45 0 70 -7q16 -10 39 -34q16 -23 28 -66q10 -47 11 -104q0 -82 -21 -131q-16 -49 -51 -68q-16 -8 -80 -8
h-113v674zM1069 977v-193h33q37 0 53 4q16 8 27 31q10 27 10 62q0 29 -6 53q-4 12 -11.5 19.5t-11.5 15.5q-10 8 -55 8h-39zM1319 1346h72v-674h-72v674zM1419 1346h76l27 -152h137l29 152h77l-139 -674h-76zM1542 1081l45 -252l51 252h-96z" />
</svg>
