<?xml version="1.0" standalone="no"?>
<!DOCTYPE svg PUBLIC "-//W3C//DTD SVG 1.1//EN" "http://www.w3.org/Graphics/SVG/1.1/DTD/svg11.dtd" >
<svg xmlns="http://www.w3.org/2000/svg" xmlns:xlink="http://www.w3.org/1999/xlink" version="1.1" viewBox="-10 0 2291 2048">
   <path fill="currentColor"
d="M205 1597q0 -16 10 -24t23 -8h26v-1172h-26q-12 0 -22.5 -10t-10.5 -23v-108q0 -16 10 -24.5t23 -8.5h319v-119h408v119h319q33 0 33 33v82h694q29 0 47.5 19.5t18.5 45.5v488q0 37 -15.5 62.5t-36.5 41.5l-118 99q-29 25 -46.5 57.5t-17.5 66.5v340q0 29 -19.5 47.5
t-45.5 18.5h-461v86q0 12 -9.5 22.5t-23.5 10.5h-1046q-12 0 -22.5 -10.5t-10.5 -22.5v-109zM340 1124q12 117 63 174q55 61 156 62q66 0 119 -27q23 -12 39.5 -30t30.5 -43q24 -49 24 -106q0 -65 -18 -114q-12 -20 -27.5 -37.5t-34.5 -29.5q-20 -12 -48 -23.5t-66 -25.5
q-76 -20 -99 -43q-18 -18 -18 -41q0 -25 18 -43q29 -23 74 -23q43 0 70 21q20 23 26 75l109 -8q-4 -92 -51 -143q-47 -55 -154 -55q-61 0 -102 20q-23 14 -40.5 30.5t-27.5 39.5t-17.5 45t-7.5 49q0 82 54 135q33 39 118 70q72 16 84 28q29 12 41 27q10 20 11 41
q0 39 -27 63q-23 29 -78 29q-53 0 -80 -31q-27 -27 -37 -96zM827 786h156v557h107v-557h157v-112h-420v112zM1319 1343h205q57 0 92 -12q45 -20 76 -53q18 -23 32.5 -52.5t22.5 -66.5q20 -55 20 -143q0 -96 -20 -156q-16 -68 -49 -110q-33 -41 -80 -64q-37 -12 -98 -12h-201
v669zM1425 1231v-445h52q68 0 84 7q28 7 53 32q20 27 28 66q8 20 10.5 50t2.5 69t-2 69.5t-11 53.5q-4 20 -10 37.5t-16 27.5q-20 20 -43 29q-10 2 -26.5 3t-39.5 1h-82z" />
</svg>
