<?xml version="1.0" standalone="no"?>
<!DOCTYPE svg PUBLIC "-//W3C//DTD SVG 1.1//EN" "http://www.w3.org/Graphics/SVG/1.1/DTD/svg11.dtd" >
<svg xmlns="http://www.w3.org/2000/svg" xmlns:xlink="http://www.w3.org/1999/xlink" version="1.1" viewBox="-10 0 3594 2048">
   <path fill="currentColor"
d="M205 1741v-1385h342v-254h493v254h312v150h190v-150h342v-254h494v254h311v166l639 -2q23 0 37 14.5t14 32.5v527q0 18 -14 31.5t-37 13.5h-248q-23 0 -40 17.5t-17 41.5v358q0 20 -14.5 34t-34.5 14h-285v137h-1147v-146h-190v146h-1147zM293 1192q8 131 57 201
q46 69 134 69h3q61 0 103 -28q43 -33 63 -88q23 -61 23 -125q0 -76 -19 -125q-16 -45 -51 -80q-33 -27 -102 -55q-70 -27 -88 -52q-12 -20 -13 -47q0 -33 15 -49q23 -29 63 -29q41 0 60 27q20 27 26 86l97 -4q-4 -109 -48 -172q-45 -66 -133 -66q-55 0 -94 27q-39 31 -57 80
q-20 47 -21 110q0 92 43 156q31 45 107 76q59 25 76 35q27 16 34 32q8 18 9 48q0 47 -23 75q-20 33 -70 33q-43 0 -67 -37q-25 -35 -35 -112zM725 803h139v645h97v-645h137v-133h-373v133zM1161 1448h178q51 0 86 -18q41 -23 66 -62q33 -51 51 -137v-2v-336q0 -8 -2 -10
q-14 -76 -45 -127q-14 -27 -31.5 -44.5t-38.5 -27.5q-29 -14 -90 -14h-174v778zM1257 1315v-512h41q57 0 80 6q25 10 43 37q16 27 27 76q10 51 10 137q0 84 -10 141q-8 51 -25 76q-16 23 -39 31q-14 8 -57 8h-70zM1890 1460h314q176 0 223 -6q72 -6 125 -37q49 -31 80 -80
q28 -49 28 -99q0 -66 -45 -122q-45 -47 -129 -69q61 -27 94 -68q35 -47 35 -100q0 -55 -28 -93q-31 -43 -70 -63q-47 -27 -96 -33q-29 -4 -69 -6t-95 -2h-367v778zM2077 1327v-207h149q127 1 164 13q37 8 59 34q20 27 21 60q0 39 -27 65q-29 25 -67 31q-14 2 -46 3t-81 1
h-172zM2077 991v-178h106h105t53 2q45 4 69 27q25 23 25 59q0 37 -27 60q-24 22 -75 28q-14 0 -47 1t-88 1h-121zM2802 1524h161v-84h-161v84zM2802 672h161v-82h-161v82zM3041 672h160v-82h-160v82z" />
</svg>
