<?xml version="1.0" standalone="no"?>
<!DOCTYPE svg PUBLIC "-//W3C//DTD SVG 1.1//EN" "http://www.w3.org/Graphics/SVG/1.1/DTD/svg11.dtd" >
<svg xmlns="http://www.w3.org/2000/svg" xmlns:xlink="http://www.w3.org/1999/xlink" version="1.1" viewBox="-10 0 3594 2048">
   <path fill="currentColor"
d="M205 1741v-1385h342v-254h493v254h310v150h192v-150h342v-254h494v254h311v168l639 -4q23 0 37 14.5t14 32.5v527q0 18 -14 31.5t-37 13.5h-248q-23 0 -40 17.5t-17 41.5v358q0 20 -14.5 34t-34.5 14h-285v137h-1147v-146h-192v146h-1145zM293 1192q10 135 57 201
q46 69 134 69h3q61 0 103 -28q43 -33 63 -88q23 -61 23 -125q0 -76 -19 -125q-18 -51 -51 -80q-33 -27 -102 -55q-70 -27 -88 -52q-12 -20 -13 -47q0 -33 15 -49q23 -29 63 -29q41 0 60 27q20 27 26 86l97 -4q-4 -109 -48 -174q-45 -63 -133 -64q-57 0 -92 27q-41 29 -59 80
q-20 47 -21 110q0 92 43 156q29 43 107 78q29 10 48 19.5t28 13.5q27 16 34 32q8 18 9 48q0 47 -23 75q-20 33 -70 33q-43 0 -67 -37q-27 -39 -35 -112zM725 803h139v645h94v-645h140v-133h-373v133zM1161 1448h178q29 0 49.5 -4t36.5 -12q43 -27 66 -64q33 -51 51 -137v-2
v-338q0 -6 -2 -8q-14 -76 -45 -127q-14 -27 -31.5 -44.5t-38.5 -27.5q-29 -14 -90 -14h-174v778zM1257 1315v-512h43q55 0 78 6q29 10 43 37q16 27 27 76q10 51 10 137q0 84 -10 141q-8 51 -25 76q-16 23 -39 31q-14 8 -57 8h-70zM1839 1067q0 184 98 289q100 106 256 106
q127 0 207 -61q82 -63 117 -191l-152 -47q-18 82 -63 125q-45 39 -109 39q-88 0 -139 -61q-53 -66 -53 -211q0 -137 53 -201q55 -61 141 -61q61 0 107 34q45 35 57 97l156 -37q-27 -94 -80 -144q-90 -86 -231 -86q-166 0 -265 109q-100 106 -100 301zM2802 1524h161v-84
h-161v84zM2802 672h161v-82h-161v82zM3041 672h160v-82h-160v82z" />
</svg>
